# xmcd
#
# Track frame offsets:
#	150
#	11522
#	25282
#	41230
#	57080
#	73682
#	87707
#	99620
#	108175
#	122595
#	135910
#	142250
#	158507
#
# Disc length: 2469 seconds
# Revision: 4
# Processed by: cddbd v1.5.2PL0 Copyright (c) Steve Scherf et al.
# Submitted via: dBpowerAMP V12.0
#
DISCID=ae09a30d
DTITLE=Terry Robb - Acoustic Blues Trio
DYEAR=1994
DGENRE=Blues
TTITLE0=I Need Lovin' Now
TTITLE1=Long Train Blues
TTITLE2=My Mistake
TTITLE3=Death Letter
TTITLE4=Washington Blues
TTITLE5=Sugar Sweet
TTITLE6=I'm Just Your Fool
TTITLE7=John Hurt Medley
TTITLE8=Honey Bee
TTITLE9=Chump Man Blues
TTITLE10=Buck Dance
TTITLE11=It Hurts Me Too
TTITLE12=Let Go
EXTD=
EXTT0=
EXTT1=
EXTT2=
EXTT3=
EXTT4=
EXTT5=
EXTT6=
EXTT7=
EXTT8=
EXTT9=
EXTT10=
EXTT11=
EXTT12=
PLAYORDER=
